<svg width="25" height="21" viewBox="0 0 25 21" fill="none" xmlns="http://www.w3.org/2000/svg">
<path fill-rule="evenodd" clip-rule="evenodd" d="M2.5 0.5C1.83696 0.5 1.20107 0.763392 0.732233 1.23223C0.263392 1.70107 0 2.33696 0 3V18C0 18.663 0.263392 19.2989 0.732233 19.7678C1.20107 20.2366 1.83696 20.5 2.5 20.5H22.5C23.163 20.5 23.7989 20.2366 24.2678 19.7678C24.7366 19.2989 25 18.663 25 18V3C25 2.33696 24.7366 1.70107 24.2678 1.23223C23.7989 0.763392 23.163 0.5 22.5 0.5H2.5ZM15 6.75C15 6.41848 15.1317 6.10054 15.3661 5.86612C15.6005 5.6317 15.9185 5.5 16.25 5.5H20C20.3315 5.5 20.6495 5.6317 20.8839 5.86612C21.1183 6.10054 21.25 6.41848 21.25 6.75C21.25 7.08152 21.1183 7.39946 20.8839 7.63388C20.6495 7.8683 20.3315 8 20 8H16.25C15.9185 8 15.6005 7.8683 15.3661 7.63388C15.1317 7.39946 15 7.08152 15 6.75ZM15 10.5C15 10.1685 15.1317 9.85054 15.3661 9.61612C15.6005 9.3817 15.9185 9.25 16.25 9.25H20C20.3315 9.25 20.6495 9.3817 20.8839 9.61612C21.1183 9.85054 21.25 10.1685 21.25 10.5C21.25 10.8315 21.1183 11.1495 20.8839 11.3839C20.6495 11.6183 20.3315 11.75 20 11.75H16.25C15.9185 11.75 15.6005 11.6183 15.3661 11.3839C15.1317 11.1495 15 10.8315 15 10.5ZM15 14.25C15 13.9185 15.1317 13.6005 15.3661 13.3661C15.6005 13.1317 15.9185 13 16.25 13H20C20.3315 13 20.6495 13.1317 20.8839 13.3661C21.1183 13.6005 21.25 13.9185 21.25 14.25C21.25 14.5815 21.1183 14.8995 20.8839 15.1339C20.6495 15.3683 20.3315 15.5 20 15.5H16.25C15.9185 15.5 15.6005 15.3683 15.3661 15.1339C15.1317 14.8995 15 14.5815 15 14.25ZM5 8C5 7.00544 5.39509 6.05161 6.09835 5.34835C6.80161 4.64509 7.75544 4.25 8.75 4.25C9.74456 4.25 10.6984 4.64509 11.4017 5.34835C12.1049 6.05161 12.5 7.00544 12.5 8C12.5 8.99456 12.1049 9.94839 11.4017 10.6517C10.6984 11.3549 9.74456 11.75 8.75 11.75C7.75544 11.75 6.80161 11.3549 6.09835 10.6517C5.39509 9.94839 5 8.99456 5 8ZM7.4275 13C6.64029 12.9997 5.87295 13.2472 5.23422 13.7073C4.59549 14.1675 4.11777 14.817 3.86875 15.5638L3.81375 15.73L3.80875 15.745C3.75625 15.9025 3.74 15.9538 3.75625 15.9888C3.76375 16.005 3.78125 16.0175 3.80375 16.0375C3.84375 16.0688 3.90375 16.1175 3.98625 16.2312C4.10207 16.3918 4.25437 16.5226 4.43062 16.6128C4.60687 16.703 4.80202 16.75 5 16.75H12.5C12.698 16.75 12.8931 16.703 13.0694 16.6128C13.2456 16.5226 13.3979 16.3918 13.5138 16.2312C13.5643 16.1577 13.6259 16.0924 13.6962 16.0375C13.72 16.0175 13.735 16.005 13.7438 15.9875C13.7613 15.9537 13.7438 15.9025 13.6913 15.745L13.6863 15.73L13.6313 15.5638C13.3823 14.8172 12.9048 14.1678 12.2663 13.7077C11.6278 13.2476 10.8608 13 10.0738 13H7.4275Z" fill="white"/>
</svg>
