<svg width="25" height="20" viewBox="0 0 25 20" fill="none" xmlns="http://www.w3.org/2000/svg">
<path fill-rule="evenodd" clip-rule="evenodd" d="M2.5 0C1.83696 0 1.20107 0.263392 0.732233 0.732233C0.263392 1.20107 0 1.83696 0 2.5V17.5C0 18.163 0.263392 18.7989 0.732233 19.2678C1.20107 19.7366 1.83696 20 2.5 20H22.5C23.163 20 23.7989 19.7366 24.2678 19.2678C24.7366 18.7989 25 18.163 25 17.5V2.5C25 1.83696 24.7366 1.20107 24.2678 0.732233C23.7989 0.263392 23.163 0 22.5 0H2.5ZM15 6.25C15 5.91848 15.1317 5.60054 15.3661 5.36612C15.6005 5.1317 15.9185 5 16.25 5H20C20.3315 5 20.6495 5.1317 20.8839 5.36612C21.1183 5.60054 21.25 5.91848 21.25 6.25C21.25 6.58152 21.1183 6.89946 20.8839 7.13388C20.6495 7.3683 20.3315 7.5 20 7.5H16.25C15.9185 7.5 15.6005 7.3683 15.3661 7.13388C15.1317 6.89946 15 6.58152 15 6.25ZM15 10C15 9.66848 15.1317 9.35054 15.3661 9.11612C15.6005 8.8817 15.9185 8.75 16.25 8.75H20C20.3315 8.75 20.6495 8.8817 20.8839 9.11612C21.1183 9.35054 21.25 9.66848 21.25 10C21.25 10.3315 21.1183 10.6495 20.8839 10.8839C20.6495 11.1183 20.3315 11.25 20 11.25H16.25C15.9185 11.25 15.6005 11.1183 15.3661 10.8839C15.1317 10.6495 15 10.3315 15 10ZM15 13.75C15 13.4185 15.1317 13.1005 15.3661 12.8661C15.6005 12.6317 15.9185 12.5 16.25 12.5H20C20.3315 12.5 20.6495 12.6317 20.8839 12.8661C21.1183 13.1005 21.25 13.4185 21.25 13.75C21.25 14.0815 21.1183 14.3995 20.8839 14.6339C20.6495 14.8683 20.3315 15 20 15H16.25C15.9185 15 15.6005 14.8683 15.3661 14.6339C15.1317 14.3995 15 14.0815 15 13.75ZM5 7.5C5 6.50544 5.39509 5.55161 6.09835 4.84835C6.80161 4.14509 7.75544 3.75 8.75 3.75C9.74456 3.75 10.6984 4.14509 11.4017 4.84835C12.1049 5.55161 12.5 6.50544 12.5 7.5C12.5 8.49456 12.1049 9.44839 11.4017 10.1517C10.6984 10.8549 9.74456 11.25 8.75 11.25C7.75544 11.25 6.80161 10.8549 6.09835 10.1517C5.39509 9.44839 5 8.49456 5 7.5ZM7.4275 12.5C6.64029 12.4997 5.87295 12.7472 5.23422 13.2073C4.59549 13.6675 4.11777 14.317 3.86875 15.0638L3.81375 15.23L3.80875 15.245C3.75625 15.4025 3.74 15.4538 3.75625 15.4888C3.76375 15.505 3.78125 15.5175 3.80375 15.5375C3.84375 15.5688 3.90375 15.6175 3.98625 15.7312C4.10207 15.8918 4.25437 16.0226 4.43062 16.1128C4.60687 16.203 4.80202 16.25 5 16.25H12.5C12.698 16.25 12.8931 16.203 13.0694 16.1128C13.2456 16.0226 13.3979 15.8918 13.5138 15.7312C13.5643 15.6577 13.6259 15.5924 13.6962 15.5375C13.72 15.5175 13.735 15.505 13.7438 15.4875C13.7613 15.4537 13.7438 15.4025 13.6913 15.245L13.6863 15.23L13.6313 15.0638C13.3823 14.3172 12.9048 13.6678 12.2663 13.2077C11.6278 12.7476 10.8608 12.5 10.0738 12.5H7.4275Z" fill="#5D7285"/>
</svg>
