<svg width="24" height="22" viewBox="0 0 24 22" fill="none" xmlns="http://www.w3.org/2000/svg">
<path d="M0.301162 16.463C0.171163 16.1322 -0.220834 14.992 0.168163 14.0969L9.9951 19.6173C10.0453 19.6455 10.1022 19.6603 10.1601 19.6603C10.218 19.6603 10.2749 19.6455 10.3251 19.6173L24 11.936V14.2263L10.1601 22L0.301162 16.463ZM0.191163 8.0452C-0.0968348 8.89846 0.206163 10.0475 0.315162 10.4055L10.1601 15.9357L24 8.16195V5.86972L10.3251 13.551C10.2749 13.5792 10.218 13.5941 10.1601 13.5941C10.1022 13.5941 10.0453 13.5792 9.9951 13.551L0.191163 8.0452ZM13.3611 6.1616C13.3167 6.186 13.2671 6.20013 13.2162 6.20288C13.1652 6.20562 13.1144 6.19692 13.0674 6.17744C13.0205 6.15797 12.9789 6.12824 12.9457 6.09056C12.9125 6.05289 12.8887 6.00828 12.8761 5.9602L12.5961 4.85786L10.4701 4.68663C10.4002 4.68083 10.334 4.65352 10.2812 4.60865C10.2283 4.56379 10.1915 4.50371 10.1762 4.43712C10.1608 4.37054 10.1676 4.30092 10.1956 4.23837C10.2237 4.17581 10.2715 4.12358 10.3321 4.08924L15.9101 0.956395L14.2081 0L0.69816 7.58889L10.1601 12.9031L23.67 5.31417L19.27 2.84292L13.3611 6.1616ZM13.1791 4.47939L13.4111 5.392L18.609 2.47223L16.569 1.32611L11.5761 4.13205L12.8861 4.23713C12.9549 4.24272 13.0203 4.2692 13.0728 4.31284C13.1254 4.35648 13.1626 4.41411 13.1791 4.47939ZM24 8.90333L10.3251 16.5846C10.2749 16.6128 10.218 16.6277 10.1601 16.6277C10.1022 16.6277 10.0453 16.6128 9.9951 16.5846L0.168163 11.0652C-0.221834 11.9593 0.171163 13.0996 0.301162 13.4294L10.1601 18.9683L24 11.1946V8.90333Z" fill="#5D7285"/>
</svg>
