<svg width="18" height="25" viewBox="0 0 18 25" fill="none" xmlns="http://www.w3.org/2000/svg">
<path d="M16.9447 5.27865H3.12133C2.93702 5.27603 2.75515 5.23612 2.58668 5.16131C2.41822 5.0865 2.26665 4.97834 2.14112 4.84336C2.01559 4.70839 1.9187 4.54938 1.85629 4.37594C1.79388 4.2025 1.76725 4.01822 1.77799 3.8342C1.7771 3.468 1.91532 3.11513 2.16471 2.84697C2.4141 2.57882 2.75602 2.41539 3.12133 2.38976H16.9447C17.1362 2.38976 17.3199 2.31367 17.4553 2.17822C17.5908 2.04278 17.6669 1.85908 17.6669 1.66753C17.6669 1.47599 17.5908 1.29229 17.4553 1.15685C17.3199 1.0214 17.1362 0.945313 16.9447 0.945312H3.12133C2.37281 0.971527 1.66372 1.28742 1.14363 1.82638C0.623536 2.36534 0.33309 3.08522 0.333549 3.8342C0.326317 3.95205 0.326317 4.07024 0.333549 4.18809C0.326591 4.24566 0.326591 4.30386 0.333549 4.36142V21.1675C0.33309 21.9165 0.623536 22.6364 1.14363 23.1754C1.66372 23.7143 2.37281 24.0302 3.12133 24.0564H16.9447C17.1362 24.0564 17.3199 23.9803 17.4553 23.8449C17.5908 23.7094 17.6669 23.5257 17.6669 23.3342V6.05142C17.6673 5.85494 17.5929 5.66567 17.4587 5.52211C17.3245 5.37856 17.1407 5.2915 16.9447 5.27865Z" fill="white"/>
</svg>
