<svg width="26" height="26" viewBox="0 0 26 26" fill="none" xmlns="http://www.w3.org/2000/svg">
<path d="M7.22266 3.75586H20.2227V4.8753H7.22266V3.75586Z" fill="#5D7285"/>
<path d="M20.9447 5.77865H7.12133C6.93702 5.77603 6.75515 5.73612 6.58668 5.66131C6.41822 5.5865 6.26665 5.47834 6.14112 5.34336C6.01559 5.20839 5.9187 5.04938 5.85629 4.87594C5.79388 4.7025 5.76725 4.51822 5.77799 4.3342C5.7771 3.968 5.91532 3.61513 6.16471 3.34697C6.4141 3.07882 6.75602 2.91539 7.12133 2.88976H20.9447C21.1362 2.88976 21.3199 2.81367 21.4553 2.67822C21.5908 2.54278 21.6669 2.35908 21.6669 2.16753C21.6669 1.97599 21.5908 1.79229 21.4553 1.65685C21.3199 1.5214 21.1362 1.44531 20.9447 1.44531H7.12133C6.37281 1.47153 5.66372 1.78742 5.14363 2.32638C4.62354 2.86534 4.33309 3.58522 4.33355 4.3342C4.32632 4.45205 4.32632 4.57024 4.33355 4.68809C4.32659 4.74566 4.32659 4.80386 4.33355 4.86142V21.6675C4.33309 22.4165 4.62354 23.1364 5.14363 23.6754C5.66372 24.2143 6.37281 24.5302 7.12133 24.5564H20.9447C21.1362 24.5564 21.3199 24.4803 21.4553 24.3449C21.5908 24.2094 21.6669 24.0257 21.6669 23.8342V6.55142C21.6673 6.35494 21.5929 6.16567 21.4587 6.02211C21.3245 5.87856 21.1407 5.7915 20.9447 5.77865Z" fill="#5D7285"/>
</svg>
