<svg width="20" height="25" viewBox="0 0 20 25" fill="none" xmlns="http://www.w3.org/2000/svg">
<path fill-rule="evenodd" clip-rule="evenodd" d="M18.6957 18.9726H18.2609V21.9934H18.6957C19.0416 21.9934 19.3734 22.1298 19.618 22.3726C19.8626 22.6154 20 22.9447 20 23.288C20 23.6314 19.8626 23.9607 19.618 24.2035C19.3734 24.4463 19.0416 24.5827 18.6957 24.5827H4.13043C3.03498 24.5827 1.98438 24.1507 1.20978 23.3819C0.43517 22.6131 0 21.5703 0 20.483V4.29994C0 3.26986 0.412266 2.28197 1.1461 1.55359C1.87994 0.825214 2.87524 0.416016 3.91304 0.416016L16.087 0.416016C17.1248 0.416016 18.1201 0.825214 18.8539 1.55359C19.5877 2.28197 20 3.26986 20 4.29994V17.6779C20 18.0213 19.8626 18.3506 19.618 18.5934C19.3734 18.8362 19.0416 18.9726 18.6957 18.9726ZM4.13043 18.9726H15.6522V21.9934H4.13043C3.72684 21.9934 3.33978 21.8343 3.0544 21.551C2.76902 21.2677 2.6087 20.8836 2.6087 20.483C2.6087 20.0824 2.76902 19.6982 3.0544 19.415C3.33978 19.1317 3.72684 18.9726 4.13043 18.9726ZM10.2974 5.29941C10.0767 5.25576 9.84899 5.26123 9.63068 5.31544C9.41238 5.36965 9.2089 5.47124 9.03491 5.6129C8.86092 5.75455 8.72075 5.93275 8.62449 6.13465C8.52824 6.33654 8.47829 6.55712 8.47826 6.78048C8.47826 7.06661 8.36374 7.34103 8.1599 7.54335C7.95605 7.74568 7.67958 7.85935 7.3913 7.85935C7.10303 7.85935 6.82655 7.74568 6.62271 7.54335C6.41887 7.34103 6.30435 7.06661 6.30435 6.78048C6.30434 6.10156 6.49418 5.43595 6.85271 4.85776C7.21124 4.27958 7.72441 3.8115 8.33508 3.50564C8.94574 3.19978 9.62995 3.06813 10.3115 3.12536C10.9931 3.1826 11.6453 3.42646 12.1955 3.8298C12.7458 4.23314 13.1724 4.78013 13.428 5.40988C13.6836 6.03963 13.758 6.72743 13.6431 7.39671C13.5282 8.06598 13.2284 8.69047 12.7771 9.20065C12.3258 9.71084 11.7407 10.0867 11.087 10.2864C11.0798 10.5725 10.9584 10.8441 10.7495 11.0414C10.5406 11.2387 10.2613 11.3456 9.97304 11.3385C9.68476 11.3314 9.41113 11.2109 9.21234 11.0036C9.01356 10.7962 8.90589 10.519 8.91304 10.2329V9.36977C8.91304 8.77423 9.4 8.2909 10 8.2909C10.3774 8.2902 10.741 8.15034 11.0204 7.89848C11.2997 7.64662 11.4748 7.30072 11.5116 6.92794C11.5485 6.55516 11.4444 6.18209 11.2197 5.88115C10.995 5.58021 10.6674 5.37288 10.2974 5.29941ZM10 15.7515C9.59641 15.7515 9.20935 15.5924 8.92397 15.3091C8.63859 15.0258 8.47826 14.6417 8.47826 14.2411C8.47826 13.8405 8.63859 13.4563 8.92397 13.173C9.20935 12.8898 9.59641 12.7307 10 12.7307C10.4036 12.7307 10.7907 12.8898 11.076 13.173C11.3614 13.4563 11.5217 13.8405 11.5217 14.2411C11.5217 14.6417 11.3614 15.0258 11.076 15.3091C10.7907 15.5924 10.4036 15.7515 10 15.7515Z" fill="white"/>
</svg>
