<svg width="20" height="25" viewBox="0 0 20 25" fill="none" xmlns="http://www.w3.org/2000/svg">
<path fill-rule="evenodd" clip-rule="evenodd" d="M18.6957 18.5565H18.2609V21.5774H18.6957C19.0416 21.5774 19.3734 21.7138 19.618 21.9566C19.8626 22.1994 20 22.5287 20 22.872C20 23.2154 19.8626 23.5447 19.618 23.7875C19.3734 24.0303 19.0416 24.1667 18.6957 24.1667H4.13043C3.03498 24.1667 1.98438 23.7347 1.20978 22.9659C0.43517 22.197 0 21.1543 0 20.067V3.88393C0 2.85385 0.412266 1.86595 1.1461 1.13758C1.87994 0.409198 2.87524 0 3.91304 0L16.087 0C17.1248 0 18.1201 0.409198 18.8539 1.13758C19.5877 1.86595 20 2.85385 20 3.88393V17.2619C20 17.6053 19.8626 17.9346 19.618 18.1774C19.3734 18.4201 19.0416 18.5565 18.6957 18.5565ZM4.13043 18.5565H15.6522V21.5774H4.13043C3.72684 21.5774 3.33978 21.4182 3.0544 21.135C2.76902 20.8517 2.6087 20.4676 2.6087 20.067C2.6087 19.6664 2.76902 19.2822 3.0544 18.9989C3.33978 18.7157 3.72684 18.5565 4.13043 18.5565ZM10.2974 4.88339C10.0767 4.83974 9.84899 4.84522 9.63068 4.89943C9.41238 4.95363 9.2089 5.05523 9.03491 5.19688C8.86092 5.33854 8.72075 5.51673 8.62449 5.71863C8.52824 5.92053 8.47829 6.1411 8.47826 6.36446C8.47826 6.6506 8.36374 6.92501 8.1599 7.12734C7.95605 7.32967 7.67958 7.44333 7.3913 7.44333C7.10303 7.44333 6.82655 7.32967 6.62271 7.12734C6.41887 6.92501 6.30435 6.6506 6.30435 6.36446C6.30434 5.68554 6.49418 5.01993 6.85271 4.44175C7.21124 3.86356 7.72441 3.39548 8.33508 3.08962C8.94574 2.78376 9.62995 2.65212 10.3115 2.70935C10.9931 2.76658 11.6453 3.01044 12.1955 3.41378C12.7458 3.81712 13.1724 4.36411 13.428 4.99387C13.6836 5.62362 13.758 6.31142 13.6431 6.98069C13.5282 7.64997 13.2284 8.27446 12.7771 8.78464C12.3258 9.29482 11.7407 9.67067 11.087 9.87036C11.0798 10.1565 10.9584 10.4281 10.7495 10.6254C10.5406 10.8227 10.2613 10.9296 9.97304 10.9225C9.68476 10.9154 9.41113 10.7949 9.21234 10.5876C9.01356 10.3802 8.90589 10.103 8.91304 9.81684V8.95375C8.91304 8.35821 9.4 7.87488 10 7.87488C10.3774 7.87418 10.741 7.73433 11.0204 7.48247C11.2997 7.2306 11.4748 6.88471 11.5116 6.51192C11.5485 6.13914 11.4444 5.76607 11.2197 5.46513C10.995 5.1642 10.6674 4.95687 10.2974 4.88339ZM10 15.3355C9.59641 15.3355 9.20935 15.1763 8.92397 14.8931C8.63859 14.6098 8.47826 14.2256 8.47826 13.8251C8.47826 13.4245 8.63859 13.0403 8.92397 12.757C9.20935 12.4738 9.59641 12.3146 10 12.3146C10.4036 12.3146 10.7907 12.4738 11.076 12.757C11.3614 13.0403 11.5217 13.4245 11.5217 13.8251C11.5217 14.2256 11.3614 14.6098 11.076 14.8931C10.7907 15.1763 10.4036 15.3355 10 15.3355Z" fill="#5D7285"/>
</svg>
