<svg width="27" height="26" viewBox="0 0 27 26" fill="none" xmlns="http://www.w3.org/2000/svg">
<g clip-path="url(#clip0_2556_5393)">
<path d="M7.72266 3.75586H20.7227V4.8753H7.72266V3.75586Z" fill="#5D7285"/>
<path d="M21.4447 5.77865H7.62133C7.43702 5.77603 7.25515 5.73612 7.08668 5.66131C6.91822 5.5865 6.76665 5.47834 6.64112 5.34336C6.51559 5.20839 6.4187 5.04938 6.35629 4.87594C6.29388 4.7025 6.26725 4.51822 6.27799 4.3342C6.2771 3.968 6.41532 3.61513 6.66471 3.34697C6.9141 3.07882 7.25602 2.91539 7.62133 2.88976H21.4447C21.6362 2.88976 21.8199 2.81367 21.9553 2.67822C22.0908 2.54278 22.1669 2.35908 22.1669 2.16753C22.1669 1.97599 22.0908 1.79229 21.9553 1.65685C21.8199 1.5214 21.6362 1.44531 21.4447 1.44531H7.62133C6.87281 1.47153 6.16372 1.78742 5.64363 2.32638C5.12354 2.86534 4.83309 3.58522 4.83355 4.3342C4.82632 4.45205 4.82632 4.57024 4.83355 4.68809C4.82659 4.74566 4.82659 4.80386 4.83355 4.86142V21.6675C4.83309 22.4165 5.12354 23.1364 5.64363 23.6754C6.16372 24.2143 6.87281 24.5302 7.62133 24.5564H21.4447C21.6362 24.5564 21.8199 24.4803 21.9553 24.3449C22.0908 24.2094 22.1669 24.0257 22.1669 23.8342V6.55142C22.1673 6.35494 22.0929 6.16567 21.9587 6.02211C21.8245 5.87856 21.6407 5.7915 21.4447 5.77865Z" fill="#5D7285"/>
</g>
<defs>
<clipPath id="clip0_2556_5393">
<rect width="26" height="26" fill="white" transform="translate(0.5)"/>
</clipPath>
</defs>
</svg>
