<svg width="20" height="15" viewBox="0 0 20 15" fill="none" xmlns="http://www.w3.org/2000/svg">
<path d="M10.0006 10.921C11.7009 10.921 13.0792 9.54266 13.0792 7.84235C13.0792 6.14204 11.7009 4.76367 10.0006 4.76367C8.30025 4.76367 6.92188 6.14204 6.92188 7.84235C6.92188 9.54266 8.30025 10.921 10.0006 10.921Z" stroke="#2E2E2F" stroke-width="2"/>
<path d="M18.4027 6.74894C18.8009 7.23332 19 7.47449 19 7.8429C19 8.21132 18.8009 8.45248 18.4027 8.93686C16.9455 10.7061 13.7314 14.0003 10 14.0003C6.26864 14.0003 3.0545 10.7061 1.59726 8.93686C1.19909 8.45248 1 8.21132 1 7.8429C1 7.47449 1.19909 7.23332 1.59726 6.74894C3.0545 4.97973 6.26864 1.68555 10 1.68555C13.7314 1.68555 16.9455 4.97973 18.4027 6.74894Z" stroke="#2E2E2F" stroke-width="2"/>
</svg>
